<svg height="512pt" viewBox="0 -44 512 512" width="512pt" xmlns="http://www.w3.org/2000/svg"><g fill="#30995b"><path d="m67.457031 128.039062c0-6.609374.117188-13.089843.335938-19.402343h-.011719c-9.972656-25.859375-21.101562-46.515625-30.667969-57.320313-4.871093 16.148438-.226562 54.128906 12.886719 96.898438 7.175781 23.394531 15.726562 44.425781 24.203125 60.636718-4.183594-21.121093-6.746094-49.542968-6.746094-80.8125zm0 0"/><path d="m231.488281 128.039062c0-6.609374.117188-13.089843.335938-19.402343h-.011719c-9.972656-25.859375-21.101562-46.515625-30.671875-57.320313-4.871094 16.148438-.226563 54.128906 12.890625 96.898438 7.171875 23.394531 15.726562 44.425781 24.203125 60.636718-4.183594-21.121093-6.746094-49.542968-6.746094-80.8125zm0 0"/><path d="m395.519531 128.039062c0-6.609374.113281-13.089843.335938-19.402343h-.011719c-9.976562-25.859375-21.105469-46.515625-30.671875-57.320313-4.871094 16.148438-.226563 54.128906 12.890625 96.898438 7.171875 23.394531 15.722656 44.425781 24.199219 60.636718-4.179688-21.121093-6.742188-49.542968-6.742188-80.8125zm0 0"/><path d="m154.691406 148.214844c13.132813-42.820313 17.773438-80.84375 12.871094-96.957032-9.324219 10.503907-20.140625 30.386719-29.925781 55.335938l-.410157.015625c.269532 6.953125.410157 14.113281.410157 21.429687 0 30.675782-2.46875 58.605469-6.511719 79.589844 8.269531-16.035156 16.570312-36.605468 23.566406-59.414062zm0 0"/><path d="m318.722656 148.214844c13.128906-42.820313 17.769532-80.84375 12.871094-96.957032-9.324219 10.503907-20.140625 30.386719-29.929688 55.335938l-.40625.015625c.265626 6.953125.40625 14.113281.40625 21.429687 0 30.675782-2.46875 58.605469-6.507812 79.589844 8.269531-16.035156 16.570312-36.605468 23.566406-59.414062zm0 0"/><path d="m482.753906 148.214844c13.128906-42.820313 17.769532-80.84375 12.871094-96.957032-9.324219 10.503907-20.140625 30.386719-29.929688 55.335938l-.410156.015625c.269532 6.953125.410156 14.113281.410156 21.429687 0 30.675782-2.46875 58.605469-6.507812 79.589844 8.265625-16.035156 16.570312-36.605468 23.566406-59.414062zm0 0"/></g><path d="m117.203125 128.039062c0-7.316406-.140625-14.476562-.410156-21.425781-1.425781-36.9375-6.476563-67.859375-13.335938-84.171875-6.984375 16.609375-12.09375 48.367188-13.414062 86.195313-.21875 6.316406-.335938 12.796875-.335938 19.40625 0 46.207031 5.597657 86.203125 13.746094 105.585937 8.152344-19.378906 13.75-59.375 13.75-105.589844zm0 0" fill="#acd670"/><path d="m281.234375 128.039062c0-7.316406-.140625-14.476562-.410156-21.425781-1.425781-36.9375-6.476563-67.859375-13.335938-84.171875-6.988281 16.609375-12.09375 48.367188-13.414062 86.195313-.21875 6.316406-.335938 12.796875-.335938 19.40625 0 46.207031 5.597657 86.203125 13.746094 105.585937 8.152344-19.378906 13.75-59.375 13.75-105.589844zm0 0" fill="#acd670"/><path d="m445.265625 128.039062c0-7.316406-.140625-14.476562-.410156-21.425781-1.425781-36.9375-6.476563-67.859375-13.335938-84.171875-6.988281 16.609375-12.09375 48.367188-13.414062 86.195313-.21875 6.316406-.335938 12.796875-.335938 19.40625 0 46.207031 5.59375 86.203125 13.746094 105.585937 8.152344-19.378906 13.75-59.375 13.75-105.589844zm0 0" fill="#acd670"/><path d="m119.425781 250.421875c-31.828125 10.46875-54.636719 38.6875-54.644531 71.875-.003906 17.140625 5.296875 54.132813 14.949219 91.980469h79.371093c9.664063-37.835938 14.972657-74.816406 14.976563-91.953125.003906-33.199219-22.8125-61.429688-54.652344-71.902344zm0 0" fill="#ef7159"/><path d="m283.457031 250.421875c-31.828125 10.46875-54.636719 38.6875-54.644531 71.875-.003906 17.140625 5.296875 54.132813 14.949219 91.980469h79.371093c9.664063-37.835938 14.972657-74.816406 14.976563-91.953125.003906-33.199219-22.8125-61.429688-54.652344-71.902344zm0 0" fill="#ef7159"/><path d="m447.488281 250.421875c-31.828125 10.46875-54.640625 38.6875-54.644531 71.875-.003906 17.140625 5.296875 54.132813 14.949219 91.980469h79.371093c9.660157-37.835938 14.972657-74.816406 14.972657-91.953125.007812-33.199219-22.808594-61.429688-54.648438-71.902344zm0 0" fill="#ef7159"/><path d="m90.160156 336.839844c-2.628906 0-5.210937 1.066406-7.070312 2.929687-1.859375 1.859375-2.929688 4.4375-2.929688 7.070313 0 2.636718 1.070313 5.207031 2.929688 7.066406 1.871094 1.863281 4.441406 2.933594 7.070312 2.933594 2.640625 0 5.210938-1.070313 7.070313-2.933594 1.871093-1.859375 2.929687-4.429688 2.929687-7.066406 0-2.632813-1.058594-5.210938-2.929687-7.070313-1.859375-1.863281-4.429688-2.929687-7.070313-2.929687zm0 0"/><path d="m254.128906 336.839844c-2.640625 0-5.21875 1.066406-7.078125 2.929687-1.859375 1.859375-2.921875 4.4375-2.921875 7.070313 0 2.636718 1.0625 5.207031 2.921875 7.066406 1.871094 1.863281 4.4375 2.933594 7.078125 2.933594 2.632813 0 5.210938-1.070313 7.070313-2.933594 1.859375-1.859375 2.929687-4.429688 2.929687-7.066406 0-2.632813-1.070312-5.210938-2.929687-7.070313-1.859375-1.863281-4.4375-2.929687-7.070313-2.929687zm0 0"/><path d="m418.089844 336.839844c-2.640625 0-5.21875 1.066406-7.070313 2.929687-1.871093 1.859375-2.929687 4.4375-2.929687 7.070313 0 2.636718 1.058594 5.207031 2.929687 7.066406 1.859375 1.863281 4.429688 2.933594 7.070313 2.933594 2.628906 0 5.210937-1.070313 7.070312-2.933594 1.859375-1.859375 2.929688-4.4375 2.929688-7.066406 0-2.632813-1.070313-5.210938-2.929688-7.070313-1.859375-1.863281-4.441406-2.929687-7.070312-2.929687zm0 0"/><path d="m502 404.277344h-2.242188c8.382813-35.929688 12.238282-66.996094 12.242188-81.953125.003906-23.175781-9.652344-44.925781-27.191406-61.242188-10.101563-9.394531-22.132813-16.3125-35.242188-20.46875 16.84375-18.855469 32.964844-58.027343 42.609375-89.46875 11.699219-38.148437 21.417969-89.558593 10.300781-108.902343-3.367187-5.859376-7.914062-7.988282-11.136718-8.742188-14.578125-3.414062-26.742188 14.3125-30.742188 20.140625-2.921875 4.261719-5.878906 9.144531-8.828125 14.550781-1.121093-9.261718-2.503906-17.90625-4.140625-25.679687-6.113281-29.003907-14.8125-42.511719-27.375-42.511719s-21.261718 13.507812-27.375 42.511719c-1.679687 7.972656-3.089844 16.859375-4.226562 26.386719-2.925782-5.410157-5.863282-10.316407-8.777344-14.617188-4.058594-5.996094-16.414062-24.234375-31.175781-20.78125-3.097657.726562-7.421875 2.734375-10.746094 8.097656-3.320313-5.363281-7.644531-7.371094-10.742187-8.097656-14.578126-3.414062-26.742188 14.316406-30.738282 20.140625-2.925781 4.261719-5.882812 9.144531-8.832031 14.550781-1.121094-9.261718-2.503906-17.902344-4.140625-25.679687-6.113281-29-14.8125-42.511719-27.375-42.511719s-21.261719 13.507812-27.371094 42.511719c-1.679687 7.972656-3.09375 16.859375-4.226562 26.390625-2.925782-5.414063-5.867188-10.320313-8.78125-14.621094-4.058594-5.996094-16.410156-24.234375-31.171875-20.777344-3.050781.710938-7.28125 2.660156-10.582031 7.824219-3.296876-5.164063-7.53125-7.113281-10.578126-7.824219-14.578124-3.417968-26.742187 14.3125-30.738281 20.136719-2.925781 4.261719-5.882812 9.148437-8.832031 14.554687-1.121094-9.261718-2.503906-17.90625-4.140625-25.679687-6.113281-29.003906-14.808594-42.51171875-27.375-42.51171875-12.5625 0-21.261719 13.50781275-27.371094 42.51171875-1.679687 7.972656-3.09375 16.855469-4.226562 26.386719-2.925781-5.410156-5.867188-10.316406-8.78125-14.621094-4.058594-5.992188-16.410157-24.230469-31.171875-20.777344-3.222656.753906-7.773438 2.882813-11.140625 8.742188-11.113281 19.34375-1.398438 70.753906 10.304687 108.902344 9.8125 31.996093 25.828125 70.722656 42.617188 89.476562-36.265625 11.558594-62.4375 43.804688-62.441406 81.671875-.003907 14.960937 3.847656 46.039063 12.21875 81.980469h-2.335938c-5.523438 0-10 4.476562-10 10 0 5.523437 4.476562 10 10 10h492c5.523438 0 10-4.476563 10-10 0-5.523438-4.476562-10-10-10zm-16.003906-349.921875c1.09375 3.820312 2.148437 12.222656.648437 27.523437-1.769531 18.082032-6.597656 40.597656-13.589843 63.402344-7.425782 24.214844-15.890626 44.511719-23.738282 59.457031 3.761719-21.648437 5.808594-48.46875 5.808594-76.699219 0-6.335937-.105469-12.597656-.308594-18.753906 13.488282-34.117187 25.472656-50.3125 31.179688-54.929687zm-74.769532-1.457031c3.109376-17.164063 6.671876-26.332032 9.027344-30.566407 2.355469 4.238281 5.917969 13.402344 9.027344 30.566407 3.769531 20.804687 5.847656 47.492187 5.847656 75.140624 0 27.652344-2.078125 54.339844-5.847656 75.144532-3.109375 17.164062-6.671875 26.332031-9.027344 30.566406-2.355468-4.238281-5.917968-13.402344-9.027344-30.566406-3.769531-20.804688-5.84375-47.492188-5.84375-75.144532 0-27.648437 2.074219-54.335937 5.84375-75.140624zm-57.195312 1.484374c5.761719 4.753907 18.128906 21.558594 31.621094 56.003907-.179688 5.800781-.273438 11.695312-.273438 17.652343 0 28.785157 2.136719 56.09375 6.039063 77.960938-7.8125-14.585938-16.539063-34.980469-24.433594-60.71875-6.996094-22.804688-11.820313-45.320312-13.59375-63.402344-1.492187-15.265625-.445313-23.664062.640625-27.496094zm-25.984375 96.761719c3.703125-12.066406 7.199219-25.457031 9.910156-38.742187 2.707031 13.285156 6.207031 26.675781 9.90625 38.742187 9.8125 31.996094 25.832031 70.722657 42.621094 89.476563-22.792969 7.269531-41.597656 22.699218-52.425781 42.566406-4.390625-8.070312-10.148438-15.535156-17.210938-22.105469-10.132812-9.425781-22.210937-16.359375-35.371094-20.511719 16.832032-18.871093 32.9375-58.007812 42.570313-89.425781zm9.984375 243.203125c.703125 3.257813 1.445312 6.574219 2.226562 9.929688h-4.460937c.78125-3.355469 1.527344-6.671875 2.234375-9.929688zm-16.160156-339.992187c1.09375 3.820312 2.148437 12.222656.648437 27.523437-1.773437 18.082032-6.597656 40.597656-13.59375 63.402344-7.425781 24.214844-15.886719 44.511719-23.734375 59.457031 3.761719-21.648437 5.808594-48.46875 5.808594-76.699219 0-6.335937-.105469-12.597656-.308594-18.753906 13.484375-34.117187 25.472656-50.3125 31.179688-54.929687zm-74.769532-1.457031c3.109376-17.164063 6.671876-26.332032 9.027344-30.566407 2.351563 4.238281 5.914063 13.402344 9.023438 30.566407 3.773437 20.804687 5.847656 47.492187 5.847656 75.140624 0 27.652344-2.074219 54.339844-5.847656 75.144532-3.109375 17.164062-6.671875 26.332031-9.023438 30.566406-2.355468-4.238281-5.917968-13.402344-9.027344-30.566406-3.773437-20.804688-5.847656-47.492188-5.847656-75.144532 0-27.648437 2.074219-54.335937 5.847656-75.140624zm-57.195312 1.484374c5.761719 4.753907 18.128906 21.558594 31.621094 56.003907-.179688 5.800781-.273438 11.695312-.273438 17.652343 0 28.785157 2.132813 56.09375 6.039063 77.960938-7.8125-14.585938-16.542969-34.980469-24.433594-60.71875-6.996094-22.804688-11.824219-45.320312-13.59375-63.402344-1.492187-15.265625-.449219-23.664062.640625-27.496094zm-25.652344 96.761719c3.625-11.820312 7.058594-24.914062 9.738282-37.933593 2.6875 13.019531 6.117187 26.113281 9.742187 37.933593 9.820313 32.023438 25.855469 70.78125 42.660156 89.519531-22.734375 7.28125-41.488281 22.695313-52.296875 42.523438-4.390625-8.070312-10.152344-15.535156-17.214844-22.105469-10.101562-9.398437-22.132812-16.3125-35.242187-20.46875 16.847656-18.855469 32.96875-58.027343 42.613281-89.46875zm9.8125 243.203125c.703125 3.257813 1.449219 6.574219 2.230469 9.929688h-4.460937c.78125-3.355469 1.527343-6.671875 2.230468-9.929688zm-15.992187-339.992187c1.09375 3.820312 2.148437 12.222656.648437 27.523437-1.773437 18.082032-6.597656 40.597656-13.589844 63.402344-7.429687 24.214844-15.890624 44.511719-23.738281 59.457031 3.761719-21.648437 5.808594-48.46875 5.808594-76.699219 0-6.335937-.105469-12.597656-.308594-18.753906 13.488281-34.117187 25.472657-50.3125 31.179688-54.929687zm-74.769531-1.457031c3.109374-17.164063 6.671874-26.332032 9.027343-30.566407 2.351563 4.238281 5.914063 13.402344 9.027344 30.566407 3.769531 20.804687 5.84375 47.492187 5.84375 75.140624 0 27.652344-2.074219 54.339844-5.84375 75.144532-3.113281 17.164062-6.675781 26.332031-9.027344 30.566406-2.355469-4.238281-5.917969-13.402344-9.027343-30.566406-3.769532-20.804688-5.847657-47.492188-5.847657-75.144532 0-27.648437 2.078125-54.335937 5.847657-75.140624zm-57.835938 28.980468c-1.492188-15.265625-.449219-23.664062.640625-27.496094 5.761719 4.753907 18.128906 21.558594 31.621094 56.003907-.179688 5.800781-.273438 11.695312-.273438 17.652343 0 28.785157 2.132813 56.09375 6.039063 77.960938-7.8125-14.585938-16.542969-34.980469-24.433594-60.71875-6.996094-22.804688-11.820312-45.320312-13.59375-63.402344zm7.421875 322.398438c-1.089844-4.519532-2.109375-8.992188-3.0625-13.390625h26.136719c5.523437 0 10-4.476563 10-10 0-5.523438-4.476563-10-10-10h-28.824219c-.429687 0-.851563.039062-1.269531.089843-3.800782-21.042968-5.757813-38.734374-5.753906-48.675781 0-7.972656 1.539062-15.621093 4.359374-22.703125.578126.101563 1.167969.167969 1.777344.167969h43.929688c5.523437 0 10-4.480469 10-10 0-5.523437-4.476563-10-10-10h-33.207032c13.175782-14.4375 32.894532-23.644531 54.917969-23.699219.144531.003906.289063.015625.4375.015625.085938 0 .167969-.007812.253907-.007812 19.183593.117187 37.164062 7.078125 50.679687 19.652343 13.421875 12.492188 20.816406 29.039063 20.8125 46.597657 0 3.753906-.28125 8.613281-.835937 14.339843h-42.714844c-5.523438 0-10 4.476563-10 10 0 5.523438 4.476562 10 10 10h40.171875c-2.144531 14.085938-5.296875 30.527344-9.417969 47.613282zm163.960937 0c-1.089843-4.519532-2.109374-8.992188-3.0625-13.390625h26.136719c5.523438 0 10-4.476563 10-10 0-5.523438-4.476562-10-10-10h-28.824219c-.429687 0-.851562.039062-1.265624.089843-3.804688-21.042968-5.761719-38.734374-5.757813-48.675781 0-7.972656 1.539063-15.621093 4.359375-22.703125.578125.101563 1.167969.164063 1.777344.164063h43.929687c5.523438 0 10-4.476563 10-10 0-5.523438-4.476562-10-10-10h-33.207031c13.15625-14.410157 32.835938-23.609375 54.820312-23.695313.125.003906.246094.015625.371094.015625.105469 0 .214844-.011719.320313-.011719 19.21875.09375 37.242187 7.0625 50.777343 19.65625 13.425782 12.488282 20.816407 29.039063 20.8125 46.59375 0 3.753907-.28125 8.617188-.832031 14.339844h-42.71875c-5.523437 0-10 4.480469-10 10 0 5.523438 4.476563 10 10 10h40.171875c-2.144531 14.085938-5.296875 30.53125-9.417968 47.613282h-118.390626zm163.960938 0c-1.089844-4.519532-2.109375-8.992188-3.058594-13.390625h26.132813c5.523437 0 10-4.476563 10-10 0-5.523438-4.476563-10-10-10h-28.824219c-.429688 0-.851562.039062-1.265625.089843-3.804687-21.042968-5.761719-38.734374-5.757813-48.675781 0-7.972656 1.539063-15.621093 4.359376-22.703125.578124.101563 1.167968.164063 1.777343.164063h43.929688c5.523437 0 10-4.476563 10-10 0-5.523438-4.476563-10-10-10h-33.207031c13.175781-14.433594 32.894531-23.640625 54.917968-23.695313.144532.003906.289063.015625.4375.015625.085938 0 .167969-.007812.253906-.011719 19.183594.117188 37.164063 7.082032 50.675782 19.65625 13.425781 12.488282 20.820312 29.039063 20.816406 46.59375-.003906 3.753907-.28125 8.617188-.835938 14.339844h-42.71875c-5.519531 0-10 4.480469-10 10 0 5.523438 4.480469 10 10 10h40.175782c-2.144532 14.085938-5.296875 30.53125-9.417969 47.613282h-118.390625zm0 0"/></svg>